<svg xmlns="http://www.w3.org/2000/svg" viewBox="0 0 512 512" width="512" height="512">
  <defs>
    <linearGradient id="bgGradient" x1="0%" y1="0%" x2="100%" y2="100%">
      <stop offset="0%" style="stop-color:#2563eb;stop-opacity:1" />
      <stop offset="100%" style="stop-color:#1d4ed8;stop-opacity:1" />
    </linearGradient>
    <linearGradient id="linkGradient" x1="0%" y1="0%" x2="100%" y2="100%">
      <stop offset="0%" style="stop-color:#ffffff;stop-opacity:1" />
      <stop offset="100%" style="stop-color:#f1f5f9;stop-opacity:1" />
    </linearGradient>
  </defs>
  
  <!-- Background -->
  <rect width="512" height="512" rx="64" ry="64" fill="url(#bgGradient)"/>
  
  <!-- Main link chain -->
  <g fill="none" stroke="url(#linkGradient)" stroke-width="24" stroke-linecap="round" stroke-linejoin="round">
    <!-- Left link -->
    <path d="M160 208a48 48 0 0 0 0 96h64"/>
    <!-- Right link -->
    <path d="M288 208a48 48 0 0 1 0 96h-64"/>
    <!-- Connection -->
    <path d="M192 256h128"/>
  </g>
  
  <!-- Fix indicator (wrench) -->
  <g fill="url(#linkGradient)" opacity="0.9" transform="translate(360, 120) scale(2.4)">
    <path d="M10 5L12 7l6-6L16 -1z"/>
    <path d="M12 7l16 16-6 6L6 13z"/>
    <circle cx="20" cy="20" r="2"/>
  </g>
  
  <!-- Success checkmark -->
  <g fill="none" stroke="#10b981" stroke-width="16" stroke-linecap="round" stroke-linejoin="round" opacity="0.8" transform="translate(320, 320)">
    <path d="M20 6L9 17l-5-5"/>
  </g>
  
  <!-- Document icon -->
  <g fill="url(#linkGradient)" opacity="0.7" transform="translate(80, 320) scale(1.5)">
    <path d="M14 2H6a2 2 0 0 0-2 2v16a2 2 0 0 0 2 2h12a2 2 0 0 0 2-2V8z"/>
    <polyline points="14,2 14,8 20,8"/>
    <line x1="16" y1="13" x2="8" y2="13"/>
    <line x1="16" y1="17" x2="8" y2="17"/>
    <polyline points="10,9 9,9 8,9"/>
  </g>
</svg>
